<svg xmlns="http://www.w3.org/2000/svg" xmlns:xlink="http://www.w3.org/1999/xlink" version="1.1" width="27.777777pt" height="27.777777pt" viewBox="0 0 27.777777 27.777777">
<defs>
<clipPath id="clip_1">
<path transform="matrix(2.7777777,0,0,-2.7777777,0,27.777777)" d="M0 10H10V0H0Z"/>
</clipPath>
<clipPath id="clip_2">
<path transform="matrix(2.7777777,0,0,-2.7777777,13.888888,13.888889)" d="M-4.89999-4.89999H4.89999V4.89999H-4.89999Z"/>
</clipPath>
</defs>
<g id="layer_1" data-name="Layer 1">
<g clip-path="url(#clip_1)">
<g clip-path="url(#clip_2)">
<path transform="matrix(2.7777777,0,0,-2.7777777,13.888888,.9722232)" d="M0 0C2.568 0 4.65-2.082 4.65-4.65 4.65-7.218 2.568-9.3 0-9.3-2.568-9.3-4.65-7.218-4.65-4.65-4.65-2.082-2.568 0 0 0" fill="#ffffff"/>
<path transform="matrix(2.7777777,0,0,-2.7777777,13.888888,.9722232)" stroke-width=".5" stroke-linecap="butt" stroke-miterlimit="10" stroke-linejoin="miter" fill="none" stroke="#5b9a42" d="M0 0C2.568 0 4.65-2.082 4.65-4.65 4.65-7.218 2.568-9.3 0-9.3-2.568-9.3-4.65-7.218-4.65-4.65-4.65-2.082-2.568 0 0 0Z"/>
</g>
<path transform="matrix(2.7777777,0,0,-2.7777777,13.888888,16.472222)" d="M0 0C.514 0 .93 .416 .93 .93 .93 1.444 .514 1.86 0 1.86-.514 1.86-.93 1.444-.93 .93-.93 .416-.514 0 0 0" fill="#ffffff"/>
<path transform="matrix(2.7777777,0,0,-2.7777777,13.888888,16.472222)" stroke-width=".34" stroke-linecap="round" stroke-miterlimit="10" stroke-linejoin="miter" fill="none" stroke="#5b9a42" d="M0 0C.514 0 .93 .416 .93 .93 .93 1.444 .514 1.86 0 1.86-.514 1.86-.93 1.444-.93 .93-.93 .416-.514 0 0 0Z"/>
<path transform="matrix(2.7777777,0,0,-2.7777777,10.547221,23.052498)" d="M0 0C.903 0 1.636 .599 1.636 1.338 1.636 2.078 .903 2.677 0 2.677-.903 2.677-1.636 2.078-1.636 1.338-1.636 .599-.903 0 0 0" fill="#5b9a42"/>
<path transform="matrix(2.7777777,0,0,-2.7777777,10.547221,23.052498)" stroke-width=".34" stroke-linecap="round" stroke-miterlimit="10" stroke-linejoin="miter" fill="none" stroke="#5b9a42" d="M0 0C.903 0 1.636 .599 1.636 1.338 1.636 2.078 .903 2.677 0 2.677-.903 2.677-1.636 2.078-1.636 1.338-1.636 .599-.903 0 0 0Z"/>
<path transform="matrix(2.7777777,0,0,-2.7777777,19.777222,16.7575)" d="M0 0C.831 0 1.504 .673 1.504 1.504 1.504 2.335 .831 3.009 0 3.009-.831 3.009-1.504 2.335-1.504 1.504-1.504 .673-.831 0 0 0" fill="#5b9a42"/>
<path transform="matrix(2.7777777,0,0,-2.7777777,19.777222,16.7575)" stroke-width=".34" stroke-linecap="round" stroke-miterlimit="10" stroke-linejoin="miter" fill="none" stroke="#5b9a42" d="M0 0C.831 0 1.504 .673 1.504 1.504 1.504 2.335 .831 3.009 0 3.009-.831 3.009-1.504 2.335-1.504 1.504-1.504 .673-.831 0 0 0Z"/>
<path transform="matrix(2.7777777,0,0,-2.7777777,17.82,23.052498)" d="M0 0C.748 0 1.354 .633 1.354 1.413 1.354 2.193 .748 2.826 0 2.826-.748 2.826-1.354 2.193-1.354 1.413-1.354 .633-.748 0 0 0" fill="#5b9a42"/>
<path transform="matrix(2.7777777,0,0,-2.7777777,17.82,23.052498)" stroke-width=".34" stroke-linecap="round" stroke-miterlimit="10" stroke-linejoin="miter" fill="none" stroke="#5b9a42" d="M0 0C.748 0 1.354 .633 1.354 1.413 1.354 2.193 .748 2.826 0 2.826-.748 2.826-1.354 2.193-1.354 1.413-1.354 .633-.748 0 0 0Z"/>
<path transform="matrix(2.7777777,0,0,-2.7777777,13.686944,11.948889)" d="M0 0C1.026 0 1.857 .702 1.857 1.569 1.857 2.435 1.026 3.137 0 3.137-1.026 3.137-1.857 2.435-1.857 1.569-1.857 .702-1.026 0 0 0" fill="#5b9a42"/>
<path transform="matrix(2.7777777,0,0,-2.7777777,13.686944,11.948889)" stroke-width=".34" stroke-linecap="round" stroke-miterlimit="10" stroke-linejoin="miter" fill="none" stroke="#5b9a42" d="M0 0C1.026 0 1.857 .702 1.857 1.569 1.857 2.435 1.026 3.137 0 3.137-1.026 3.137-1.857 2.435-1.857 1.569-1.857 .702-1.026 0 0 0Z"/>
<path transform="matrix(2.7777777,0,0,-2.7777777,8.325555,16.012499)" d="M0 0C.945 0 1.71 .562 1.71 1.254 1.71 1.947 .945 2.509 0 2.509-.945 2.509-1.71 1.947-1.71 1.254-1.71 .562-.945 0 0 0" fill="#5b9a42"/>
<path transform="matrix(2.7777777,0,0,-2.7777777,8.325555,16.012499)" stroke-width=".34" stroke-linecap="round" stroke-miterlimit="10" stroke-linejoin="miter" fill="none" stroke="#5b9a42" d="M0 0C.945 0 1.71 .562 1.71 1.254 1.71 1.947 .945 2.509 0 2.509-.945 2.509-1.71 1.947-1.71 1.254-1.71 .562-.945 0 0 0Z"/>
<path transform="matrix(2.7777777,0,0,-2.7777777,14.058056,16.793889)" d="M0 0C.578 0 1.046 .468 1.046 1.046 1.046 1.623 .578 2.092 0 2.092-.578 2.092-1.046 1.623-1.046 1.046-1.046 .468-.578 0 0 0" fill="#ffffff"/>
<path transform="matrix(2.7777777,0,0,-2.7777777,14.058056,16.793889)" stroke-width=".34" stroke-linecap="round" stroke-miterlimit="10" stroke-linejoin="miter" fill="none" stroke="#ffffff" d="M0 0C.578 0 1.046 .468 1.046 1.046 1.046 1.623 .578 2.092 0 2.092-.578 2.092-1.046 1.623-1.046 1.046-1.046 .468-.578 0 0 0Z"/>
</g>
</g>
</svg>
