<svg xmlns="http://www.w3.org/2000/svg" xmlns:xlink="http://www.w3.org/1999/xlink" version="1.1" width="27.777777pt" height="27.777777pt" viewBox="0 0 27.777777 27.777777">
<defs>
<clipPath id="clip_1">
<path transform="matrix(2.7777777,0,0,-2.7777777,0,27.777777)" d="M.1 .09H9.910001V9.900001H.1Z"/>
</clipPath>
<clipPath id="clip_2">
<path transform="matrix(2.7777777,0,0,-2.7777777,13.916665,13.916667)" d="M-4.91-4.91H4.91V4.91H-4.91Z"/>
</clipPath>
</defs>
<g id="layer_1" data-name="Layer 1">
<g clip-path="url(#clip_1)">
<g clip-path="url(#clip_2)">
<path transform="matrix(2.7777777,0,0,-2.7777777,13.938333,26.86111)" d="M0 0C-2.574-.004-4.663 2.079-4.668 4.652-4.672 7.226-2.589 9.316-.016 9.32 2.558 9.324 4.648 7.241 4.652 4.668 4.657 2.094 2.574 .004 0 0" fill="#ffffff"/>
<path transform="matrix(2.7777777,0,0,-2.7777777,13.938333,26.86111)" stroke-width=".5" stroke-linecap="butt" stroke-miterlimit="10" stroke-linejoin="miter" fill="none" stroke="#c13939" d="M0 0C-2.574-.004-4.663 2.079-4.668 4.652-4.672 7.226-2.589 9.316-.016 9.32 2.558 9.324 4.648 7.241 4.652 4.668 4.657 2.094 2.574 .004 0 0Z"/>
<path transform="matrix(2.7777777,0,0,-2.7777777,5.8177769,20.866667)" stroke-width=".85" stroke-linecap="butt" stroke-miterlimit="10" stroke-linejoin="miter" fill="none" stroke="#c13939" d="M0 0 5.822-.025"/>
<path transform="matrix(2.7777777,0,0,-2.7777777,19.841944,19.128333)" d="M0 0C-1.393 .011-2.787 .022-4.18 .033-4.172 1.475-4.167 2.566-4.159 4.008-4.104 4.085-3.378 5.201-2.099 5.152-1.215 5.117-.394 4.715 .008 3.913 .005 2.571 .003 1.343 0 0" fill="#c13939"/>
<path transform="matrix(2.7777777,0,0,-2.7777777,19.841944,19.128333)" stroke-width=".85" stroke-linecap="butt" stroke-miterlimit="10" stroke-linejoin="miter" fill="none" stroke="#c13939" d="M0 0C-1.393 .011-2.787 .022-4.18 .033-4.172 1.475-4.167 2.566-4.159 4.008-4.104 4.085-3.378 5.201-2.099 5.152-1.215 5.117-.394 4.715 .008 3.913 .005 2.571 .003 1.343 0 0Z"/>
</g>
</g>
</g>
</svg>
