<svg xmlns="http://www.w3.org/2000/svg" xmlns:xlink="http://www.w3.org/1999/xlink" version="1.1" width="27.777777pt" height="27.777777pt" viewBox="0 0 27.777777 27.777777">
<defs>
<clipPath id="clip_1">
<path transform="matrix(2.7777777,0,0,-2.7777777,0,27.777777)" d="M0 10H10V0H0Z"/>
</clipPath>
<clipPath id="clip_2">
<path transform="matrix(2.7777777,0,0,-2.7777777,13.888888,13.888888)" d="M-4.75999-4.75999H4.75999V4.75999H-4.75999Z"/>
</clipPath>
</defs>
<g id="layer_1" data-name="Layer 1">
<g clip-path="url(#clip_1)">
<g clip-path="url(#clip_2)">
<path transform="matrix(2.7777777,0,0,-2.7777777,13.888888,1.3611105)" d="M0 0C2.491 0 4.51-2.019 4.51-4.51 4.51-7.001 2.491-9.02 0-9.02-2.491-9.02-4.51-7.001-4.51-4.51-4.51-2.019-2.491 0 0 0" fill="#ffffff"/>
<path transform="matrix(2.7777777,0,0,-2.7777777,13.888888,1.3611105)" stroke-width=".5" stroke-linecap="butt" stroke-miterlimit="10" stroke-linejoin="miter" fill="none" stroke="#c13939" d="M0 0C2.491 0 4.51-2.019 4.51-4.51 4.51-7.001 2.491-9.02 0-9.02-2.491-9.02-4.51-7.001-4.51-4.51-4.51-2.019-2.491 0 0 0Z"/>
<path transform="matrix(2.7777777,0,0,-2.7777777,15.111111,3.8611112)" d="M0 0C.19-.17 .19-.54 .19-.54L.27-.9H-.1C-.93-.9-.79-.17-.79-.17-.79-.17-.38 .35 .01 0Z" fill="#c13939"/>
<path transform="matrix(2.7777777,0,0,-2.7777777,11.777777,12.583333)" d="M0 0C0 0-.78 .27-.21 1.06L-.08 1.39 2.46 1.92C2.46 1.92 2.57 2.31 2.7 2.2L2.77 2.01 3.11 2.08C3.11 2.08 3.35 1.83 2.89 1.6L1.56 1.1C1.56 1.1 1.97-.51 1.77-1.39L1.38-1.41 1.47-2.52H1.92L2.26-4.2H-1.03L-.73-2.52H-.24L-.03-1.25-.78-.77 0 0C0 0 0 0 0 0" fill="#c13939"/>
</g>
</g>
</g>
</svg>
