<svg xmlns="http://www.w3.org/2000/svg" xmlns:xlink="http://www.w3.org/1999/xlink" version="1.1" width="83.33333pt" height="83.33333pt" viewBox="0 0 83.33333 83.33333">
<defs>
<clipPath id="clip_1">
<path transform="matrix(2.7777777,0,0,-2.7777777,0,83.33333)" d="M0 30H30V0H0Z"/>
</clipPath>
</defs>
<g id="layer_1" data-name="Layer 1">
<path transform="matrix(2.7777777,0,0,-2.7777777,0,83.33333)" d="M12.399 8.179H1.7659998V5.003H12.399Z" fill="#5f7886"/>
<path transform="matrix(2.7777777,0,0,-2.7777777,0,83.33333)" d="M12.399 7.765H11.058001V9.323999H12.399Z" fill="#5f7886"/>
<path transform="matrix(2.7777777,0,0,-2.7777777,0,83.33333)" d="M3.108 7.765H1.766V9.323999H3.108Z" fill="#5f7886"/>
<path transform="matrix(2.7777777,0,0,-2.7777777,0,83.33333)" d="M3.534 7.764H4.416V9.323H3.534Z" fill="#5f7886"/>
<path transform="matrix(2.7777777,0,0,-2.7777777,0,83.33333)" d="M5.042 7.764H5.923V9.323H5.042Z" fill="#5f7886"/>
<path transform="matrix(2.7777777,0,0,-2.7777777,0,83.33333)" d="M6.643 7.764H7.524V9.323H6.643Z" fill="#5f7886"/>
<path transform="matrix(2.7777777,0,0,-2.7777777,0,83.33333)" d="M8.05 7.764H8.932V9.323H8.05Z" fill="#5f7886"/>
<path transform="matrix(2.7777777,0,0,-2.7777777,0,83.33333)" d="M9.554 7.764H10.434999V9.323H9.554Z" fill="#5f7886"/>
<path transform="matrix(2.7777777,0,0,-2.7777777,78.42611,69.436389)" d="M0 0V3.176H-6.283V0" fill="#5f7886"/>
<path transform="matrix(2.7777777,0,0,-2.7777777,64.69722,57.435556)" d="M0 0V-1.559H-1.341V0" fill="#5f7886"/>
<path transform="matrix(2.7777777,0,0,-2.7777777,0,83.33333)" d="M23.718 7.764H24.6V9.323H23.718Z" fill="#5f7886"/>
<path transform="matrix(2.7777777,0,0,-2.7777777,0,83.33333)" d="M25.224 7.764H26.106V9.323H25.224Z" fill="#5f7886"/>
<path transform="matrix(2.7777777,0,0,-2.7777777,78.42611,57.435556)" d="M0 0V-1.559H-1.389V0" fill="#5f7886"/>
<g clip-path="url(#clip_1)">
<path transform="matrix(2.7777777,0,0,-2.7777777,77.33277,72.867778)" d="M0 0H-5.64C-5.857 0-6.033 .177-6.033 .394-6.033 .611-5.857 .787-5.64 .787H0C.217 .787 .394 .611 .394 .394 .394 .177 .217 0 0 0" fill="#5f7886"/>
<path transform="matrix(2.7777777,0,0,-2.7777777,33.349725,72.867778)" d="M0 0H-9.845C-10.063 0-10.239 .177-10.239 .394-10.239 .611-10.063 .787-9.845 .787H0C.217 .787 .394 .611 .394 .394 .394 .177 .217 0 0 0" fill="#5f7886"/>
<path transform="matrix(2.7777777,0,0,-2.7777777,37.29778,72.867778)" d="M0 0H.007C.414 0 .743 .33 .743 .736V1.006C.743 1.412 .414 1.742 .007 1.742H0C-.407 1.742-.736 1.412-.736 1.006V.736C-.736 .33-.407 0 0 0" fill="#5f7886"/>
<path transform="matrix(2.7777777,0,0,-2.7777777,57.703886,72.867778)" d="M0 0V0C.409 0 .74 .331 .74 .74V1.002C.74 1.411 .409 1.742 0 1.742-.408 1.742-.739 1.411-.739 1.002V.74C-.739 .331-.408 0 0 0" fill="#5f7886"/>
<path transform="matrix(2.7777777,0,0,-2.7777777,57.703886,67.39083)" d="M0 0V0C-.31 0-.561 .251-.561 .561V4.832C-.561 5.142-.31 5.393 0 5.393 .311 5.393 .562 5.142 .562 4.832V.561C.562 .251 .311 0 0 0" fill="#5f7886"/>
<path transform="matrix(2.7777777,0,0,-2.7777777,37.3075,67.08972)" d="M0 0V0C-.31 0-.561 .251-.561 .561V4.832C-.561 5.142-.31 5.393 0 5.393 .31 5.393 .561 5.142 .561 4.832V.561C.561 .251 .31 0 0 0" fill="#5f7886"/>
<path transform="matrix(2.7777777,0,0,-2.7777777,40.985834,70.68139)" d="M0 0H.287C.504 0 .68-.176 .68-.394 .68-.61 .504-.787 .287-.787H0C-.217-.787-.394-.61-.394-.394-.394-.176-.217 0 0 0" fill="#5f7886"/>
<path transform="matrix(2.7777777,0,0,-2.7777777,53.176668,70.68139)" d="M0 0H.287C.504 0 .681-.176 .681-.394 .681-.61 .504-.787 .287-.787H0C-.217-.787-.394-.61-.394-.394-.394-.176-.217 0 0 0" fill="#5f7886"/>
<path transform="matrix(2.7777777,0,0,-2.7777777,28.85611,56.760004)" d="M0 0H-.907C-1.084 0-1.229 .144-1.229 .322-1.229 .5-1.084 .644-.907 .644H0C.178 .644 .322 .5 .322 .322 .322 .144 .178 0 0 0" fill="#5f7886"/>
<path transform="matrix(2.7777777,0,0,-2.7777777,70.39944,56.760004)" d="M0 0H-1.044C-1.222 0-1.366 .144-1.366 .322-1.366 .5-1.222 .644-1.044 .644H0C.178 .644 .322 .5 .322 .322 .322 .144 .178 0 0 0" fill="#5f7886"/>
<path transform="matrix(2.7777777,0,0,-2.7777777,70.71389,50.330827)" d="M0 0H-.333C-.623 0-.857 .235-.857 .524-.857 .814-.623 1.05-.333 1.05H0C.29 1.05 .525 .814 .525 .524 .525 .235 .29 0 0 0" fill="#5f7886"/>
<path transform="matrix(2.7777777,0,0,-2.7777777,29.551943,50.330827)" d="M0 0H-.406C-.695 0-.931 .235-.931 .524-.931 .814-.695 1.05-.406 1.05H0C.29 1.05 .525 .814 .525 .524 .525 .235 .29 0 0 0" fill="#5f7886"/>
<path transform="matrix(2.7777777,0,0,-2.7777777,53.447774,32.766389)" d="M0 0H-4.174C-4.352 0-4.496 .145-4.496 .322-4.496 .5-4.352 .645-4.174 .645H0C.178 .645 .322 .5 .322 .322 .322 .145 .178 0 0 0" fill="#5f7886"/>
<path transform="matrix(2.7777777,0,0,-2.7777777,41.651666,38.59861)" d="M0 0V0C-.138 0-.25 .111-.25 .25V1.277C-.25 1.415-.138 1.527 0 1.527 .138 1.527 .25 1.415 .25 1.277V.25C.25 .111 .138 0 0 0" fill="#5f7886"/>
<path transform="matrix(2.7777777,0,0,-2.7777777,41.651666,43.96833)" d="M0 0V0C-.138 0-.25 .112-.25 .25V1.278C-.25 1.416-.138 1.527 0 1.527 .138 1.527 .25 1.416 .25 1.278V.25C.25 .112 .138 0 0 0" fill="#5f7886"/>
<path transform="matrix(2.7777777,0,0,-2.7777777,53.450559,43.84083)" d="M0 0V0C-.139 0-.25 .112-.25 .25V1.278C-.25 1.416-.139 1.527 0 1.527 .138 1.527 .249 1.416 .249 1.278V.25C.249 .112 .138 0 0 0" fill="#5f7886"/>
<path transform="matrix(2.7777777,0,0,-2.7777777,53.64861,38.795274)" d="M0 0V0C-.138 0-.249 .112-.249 .25V1.278C-.249 1.416-.138 1.527 0 1.527 .138 1.527 .25 1.416 .25 1.278V.25C.25 .112 .138 0 0 0" fill="#5f7886"/>
<path transform="matrix(2.7777777,0,0,-2.7777777,0,83.33333)" d="M21.254 12.308H12.87V11.653999H21.254Z" fill="#5f7886"/>
<path transform="matrix(2.7777777,0,0,-2.7777777,0,83.33333)" d="M15.38 12.192H14.475V13.733001H15.38Z" fill="#5f7886"/>
<path transform="matrix(2.7777777,0,0,-2.7777777,0,83.33333)" d="M16.844 12.16H15.939V13.701H16.844Z" fill="#5f7886"/>
<path transform="matrix(2.7777777,0,0,-2.7777777,0,83.33333)" d="M18.334 12.16H17.428999V13.701H18.334Z" fill="#5f7886"/>
<path transform="matrix(2.7777777,0,0,-2.7777777,0,83.33333)" d="M19.767 12.16H18.862V13.701H19.767Z" fill="#5f7886"/>
<path transform="matrix(2.7777777,0,0,-2.7777777,0,83.33333)" d="M14.17 11.98H12.87V12.577H14.17Z" fill="#5f7886"/>
<path transform="matrix(2.7777777,0,0,-2.7777777,0,83.33333)" d="M20.034 11.98H21.254V12.577H20.034Z" fill="#5f7886"/>
<path transform="matrix(2.7777777,0,0,-2.7777777,25.44222,54.120557)" d="M0 0H1.676L.814 1.364Z" fill="#5f7886"/>
<path transform="matrix(2.7777777,0,0,-2.7777777,68.88305,50.21694)" d="M0 0-.814-1.363H.861" fill="#5f7886"/>
<path transform="matrix(2.7777777,0,0,-2.7777777,37.240835,37.803888)" d="M0 0-.814-3.371H.862" fill="#5f7886"/>
<path transform="matrix(2.7777777,0,0,-2.7777777,57.638887,38.16472)" d="M0 0-.814-3.371H.861" fill="#5f7886"/>
<path transform="matrix(2.7777777,0,0,-2.7777777,48.99889,10.02611)" d="M0 0-.576 .416-1.15-.004-.933 .673-1.509 1.089-.799 1.091-.581 1.768-.359 1.093 .352 1.095-.222 .675Z" fill="#5f7886"/>
<path transform="matrix(2.7777777,0,0,-2.7777777,52.107778,38.795274)" d="M0 0C0-.906-.734-1.64-1.641-1.64-2.547-1.64-3.281-.906-3.281 0-3.281 .906-2.547 1.641-1.641 1.641-.734 1.641 0 .906 0 0" fill="#5f7886"/>
<path transform="matrix(2.7777777,0,0,-2.7777777,51.147497,38.795274)" d="M0 0C0-.715-.58-1.294-1.295-1.294-2.01-1.294-2.589-.715-2.589 0-2.589 .715-2.01 1.294-1.295 1.294-.58 1.294 0 .715 0 0" fill="#ffffff"/>
<path transform="matrix(2.7777777,0,0,-2.7777777,47.309164,39.11139)" d="M0 0C.194-.285 1.158-.025 1.156 .124 1.153 .276 .154 .5-.013 .227-.054 .159-.042 .062 0 0" fill="#5f7886"/>
<path transform="matrix(2.7777777,0,0,-2.7777777,41.1675,29.645554)" d="M0 0C-.06 .119-.038 .665 .061 1.404 .161 1.72 .26 2.035 .359 2.351 .383 2.375 .438 2.425 .504 2.419 .583 2.413 .632 2.332 .658 2.29 .825 2.01 .954 1.694 .954 1.694 1.135 1.253 1.286 1.143 1.229 .923 1.209 .846 1.171 .788 1.143 .752 1.1 .813 1.034 .898 .945 .992 .815 1.129 .737 1.21 .67 1.19 .595 1.167 .574 1.03 .568 .978L.527 .198C.528 .182 .537 .003 .409-.092 .354-.132 .295-.142 .278-.145 .252-.148 .168-.156 .092-.107 .092-.107 .036-.07 0 0" fill="#5f7886"/>
<path transform="matrix(2.7777777,0,0,-2.7777777,53.96861,29.423056)" d="M0 0C.06 .119 .038 .666-.062 1.404-.161 1.72-.26 2.036-.359 2.351-.383 2.376-.438 2.425-.504 2.419-.583 2.413-.633 2.332-.658 2.29-.825 2.01-.954 1.694-.954 1.694-1.135 1.253-1.287 1.143-1.229 .924-1.209 .846-1.171 .788-1.144 .752-1.1 .813-1.034 .898-.945 .992-.815 1.129-.737 1.21-.67 1.19-.596 1.167-.574 1.031-.568 .978L-.527 .199C-.528 .182-.537 .003-.409-.092-.354-.132-.296-.142-.278-.145-.253-.148-.168-.156-.092-.107-.092-.107-.036-.07 0 0" fill="#5f7886"/>
<path transform="matrix(2.7777777,0,0,-2.7777777,50.13555,29.423056)" d="M0 0C.062 .119 .058 .522-.018 1.056-.061 1.193-.104 1.331-.146 1.467-.322 1.758-.498 2.049-.673 2.34-.754 2.563-.87 2.822-.987 2.813-1.076 2.806-1.095 2.649-1.227 2.367-1.448 1.89-1.618 1.86-1.79 1.419-1.847 1.273-1.872 1.159-1.921 .93-2.036 .401-2.108 .069-1.939-.092-1.836-.19-1.652-.216-1.549-.147-1.496-.112-1.47-.056-1.425 .266-1.376 .624-1.39 .695-1.339 .909-1.322 .979-1.283 1.126-1.191 1.295-1.114 1.436-1.064 1.528-.985 1.536-.833 1.55-.693 1.243-.67 1.19-.619 1.078-.601 .983-.585 .892-.558 .726-.529 .491-.526 .199-.527 .182-.536 .003-.408-.092-.354-.132-.295-.142-.277-.145-.252-.148-.167-.156-.091-.107-.091-.107-.036-.071 0 0" fill="#5f7886"/>
<path transform="matrix(2.7777777,0,0,-2.7777777,50.968336,23.348055)" d="M0 0C.078 .183 .074 .804-.023 1.627-.079 1.839-.135 2.05-.189 2.261-.416 2.709-.642 3.158-.868 3.606-.972 3.949-1.122 4.349-1.272 4.335-1.387 4.324-1.411 4.082-1.58 3.647-1.867 2.912-2.085 2.867-2.307 2.187-2.38 1.961-2.412 1.785-2.476 1.433-2.624 .618-2.717 .106-2.499-.142-2.366-.293-2.129-.333-1.996-.228-1.929-.174-1.894-.087-1.837 .409-1.773 .96-1.791 1.071-1.726 1.401-1.704 1.508-1.654 1.736-1.535 1.995-1.437 2.212-1.372 2.354-1.27 2.366-1.073 2.389-.894 1.915-.863 1.833-.798 1.661-.773 1.515-.755 1.375-.719 1.118-.683 .756-.679 .306-.68 .28-.691 .005-.526-.142-.456-.204-.381-.219-.358-.223-.325-.229-.216-.241-.118-.165-.118-.165-.047-.109 0 0" fill="#5f7886"/>
<path transform="matrix(2.7777777,0,0,-2.7777777,39.635,52.22444)" d="M0 0C1.852-.022 3.704-.045 5.556-.067V-6.196H4.481C4.506-6.086 4.695-5.154 4.065-4.443 3.974-4.339 3.547-3.857 2.85-3.835 2.278-3.816 1.874-4.117 1.741-4.229 1.21-4.672 .996-5.434 1.156-6.196H0Z" fill="#5f7886"/>
</g>
</g>
</svg>
