<svg xmlns="http://www.w3.org/2000/svg" xmlns:xlink="http://www.w3.org/1999/xlink" version="1.1" width="83.33333pt" height="83.33333pt" viewBox="0 0 83.33333 83.33333">
<defs>
<clipPath id="clip_1">
<path transform="matrix(2.7777777,0,0,-2.7777777,0,83.33333)" d="M0 30H30V0H0Z"/>
</clipPath>
</defs>
<g id="layer_1" data-name="Layer 1">
<g clip-path="url(#clip_1)">
<path transform="matrix(2.7777777,0,0,-2.7777777,19.183888,70.19583)" d="M0 0H-1.982C-2.132 0-2.253 .121-2.253 .271-2.253 .421-2.132 .543-1.982 .543H0C.15 .543 .272 .421 .272 .271 .272 .121 .15 0 0 0" fill="#5d7982"/>
<path transform="matrix(2.7777777,0,0,-2.7777777,44.329168,68.6875)" d="M0 0H-5.438C-5.588 0-5.71-.122-5.71-.271-5.71-.422-5.588-.543-5.438-.543H0C.15-.543 .272-.422 .272-.271 .272-.122 .15 0 0 0" fill="#5d7982"/>
<path transform="matrix(2.7777777,0,0,-2.7777777,54.956113,70.19583)" d="M0 0H-.702C-.853 0-.974 .121-.974 .271-.974 .421-.853 .543-.702 .543H0C.15 .543 .272 .421 .272 .271 .272 .121 .15 0 0 0" fill="#5d7982"/>
<path transform="matrix(2.7777777,0,0,-2.7777777,69.65333,70.19583)" d="M0 0H-3.011C-3.161 0-3.282 .121-3.282 .271-3.282 .421-3.161 .543-3.011 .543H0C.15 .543 .272 .421 .272 .271 .272 .121 .15 0 0 0" fill="#5d7982"/>
<path transform="matrix(2.7777777,0,0,-2.7777777,67.45611,63.40611)" d="M0 0H-1.19C-1.341 0-1.462 .121-1.462 .271-1.462 .422-1.341 .543-1.19 .543H0C.149 .543 .271 .422 .271 .271 .271 .121 .149 0 0 0" fill="#5d7982"/>
<path transform="matrix(2.7777777,0,0,-2.7777777,66.38194,67.792499)" d="M0 0V0C-.249 0-.451 .202-.451 .451V.692C-.451 .941-.249 1.144 0 1.144 .249 1.144 .452 .941 .452 .692V.451C.452 .202 .249 0 0 0" fill="#5d7982"/>
<path transform="matrix(2.7777777,0,0,-2.7777777,63.319169,59.95)" d="M0 0V0C-.184 0-.332 .148-.332 .332V1.333C-.332 1.517-.184 1.666 0 1.666 .184 1.666 .333 1.517 .333 1.333V.332C.333 .148 .184 0 0 0" fill="#5d7982"/>
<path transform="matrix(2.7777777,0,0,-2.7777777,63.68,52.737226)" d="M0 0H-2.14C-2.297 0-2.424 .127-2.424 .284-2.424 .441-2.297 .568-2.14 .568H0C.157 .568 .284 .441 .284 .284 .284 .127 .157 0 0 0" fill="#5d7982"/>
<path transform="matrix(2.7777777,0,0,-2.7777777,50.116666,53.911664)" d="M0 0V0C-.229 0-.413 .186-.413 .414V.489C-.413 .718-.229 .903 0 .903 .229 .903 .414 .718 .414 .489V.414C.414 .186 .229 0 0 0" fill="#5d7982"/>
<path transform="matrix(2.7777777,0,0,-2.7777777,53.72444,53.911664)" d="M0 0V0C-.229 0-.414 .186-.414 .414V.489C-.414 .718-.229 .903 0 .903 .229 .903 .414 .718 .414 .489V.414C.414 .186 .229 0 0 0" fill="#5d7982"/>
<path transform="matrix(2.7777777,0,0,-2.7777777,60.08583,47.05944)" d="M0 0V0C-.229 0-.414 .185-.414 .414V.489C-.414 .718-.229 .903 0 .903 .229 .903 .414 .718 .414 .489V.414C.414 .185 .229 0 0 0" fill="#5d7982"/>
<path transform="matrix(2.7777777,0,0,-2.7777777,48.204168,37.495836)" d="M0 0V0C-.229 0-.414 .186-.414 .414V.489C-.414 .718-.229 .903 0 .903 .229 .903 .414 .718 .414 .489V.414C.414 .186 .229 0 0 0" fill="#5d7982"/>
<path transform="matrix(2.7777777,0,0,-2.7777777,48.204168,40.84472)" d="M0 0V0C-.229 0-.414 .185-.414 .414V.489C-.414 .718-.229 .903 0 .903 .229 .903 .414 .718 .414 .489V.414C.414 .185 .229 0 0 0" fill="#5d7982"/>
<path transform="matrix(2.7777777,0,0,-2.7777777,47.86778,43.688886)" d="M0 0H-2.139C-2.296 0-2.424 .127-2.424 .285-2.424 .441-2.296 .569-2.139 .569H0C.157 .569 .284 .441 .284 .285 .284 .127 .157 0 0 0" fill="#5d7982"/>
<path transform="matrix(2.7777777,0,0,-2.7777777,46.828889,51.402498)" d="M0 0H-1.484C-1.617 0-1.724-.107-1.724-.24-1.724-.373-1.617-.48-1.484-.48H0C.133-.48 .24-.373 .24-.24 .24-.107 .133 0 0 0" fill="#5d7982"/>
<path transform="matrix(2.7777777,0,0,-2.7777777,40.467779,48.94194)" d="M0 0H-3.426C-3.559 0-3.666-.107-3.666-.24-3.666-.373-3.559-.48-3.426-.48H0C.133-.48 .24-.373 .24-.24 .24-.107 .133 0 0 0" fill="#5d7982"/>
<path transform="matrix(2.7777777,0,0,-2.7777777,29.022778,45.974447)" d="M0 0H-2.242C-2.375 0-2.482-.107-2.482-.24-2.482-.373-2.375-.48-2.242-.48H0C.133-.48 .24-.373 .24-.24 .24-.107 .133 0 0 0" fill="#5d7982"/>
<path transform="matrix(2.7777777,0,0,-2.7777777,28.335276,53.244443)" d="M0 0H-1.872C-2.004 0-2.112-.107-2.112-.24-2.112-.373-2.004-.48-1.872-.48H0C.133-.48 .24-.373 .24-.24 .24-.107 .133 0 0 0" fill="#5d7982"/>
<path transform="matrix(2.7777777,0,0,-2.7777777,24.065554,51.532777)" d="M0 0V0C-.229 0-.414 .186-.414 .414V.489C-.414 .719-.229 .903 0 .903 .229 .903 .414 .719 .414 .489V.414C.414 .186 .229 0 0 0" fill="#5d7982"/>
<path transform="matrix(2.7777777,0,0,-2.7777777,27.56472,51.53)" d="M0 0V0C-.229 0-.414 .185-.414 .413V.489C-.414 .718-.229 .902 0 .902 .229 .902 .414 .718 .414 .489V.413C.414 .185 .229 0 0 0" fill="#5d7982"/>
<path transform="matrix(2.7777777,0,0,-2.7777777,32.470834,47.894998)" d="M0 0V0C-.229 0-.414 .186-.414 .414V.489C-.414 .718-.229 .903 0 .903 .229 .903 .414 .718 .414 .489V.414C.414 .186 .229 0 0 0" fill="#5d7982"/>
<path transform="matrix(2.7777777,0,0,-2.7777777,35.37611,47.894998)" d="M0 0V0C-.229 0-.414 .186-.414 .414V.489C-.414 .718-.229 .903 0 .903 .229 .903 .414 .718 .414 .489V.414C.414 .186 .229 0 0 0" fill="#5d7982"/>
<path transform="matrix(2.7777777,0,0,-2.7777777,38.605276,47.894998)" d="M0 0V0C-.229 0-.414 .186-.414 .414V.489C-.414 .718-.229 .903 0 .903 .229 .903 .414 .718 .414 .489V.414C.414 .186 .229 0 0 0" fill="#5d7982"/>
<path transform="matrix(2.7777777,0,0,-2.7777777,44.295278,40.84472)" d="M0 0V0C-.229 0-.414 .185-.414 .414V.489C-.414 .718-.229 .903 0 .903 .229 .903 .414 .718 .414 .489V.414C.414 .185 .229 0 0 0" fill="#5d7982"/>
<path transform="matrix(2.7777777,0,0,-2.7777777,44.992498,37.495836)" d="M0 0H-.501C-.553 .014-.626 .036-.712 .068-.712 .068-1.171 .235-1.586 .665-1.621 .7-1.677 .762-1.662 .825-1.653 .864-1.619 .889-1.595 .903H-.501 0C.09 .903 .163 .83 .163 .74V.163C.163 .073 .09 0 0 0" fill="#5d7982"/>
<path transform="matrix(2.7777777,0,0,-2.7777777,49.712499,32.136945)" d="M0 0H-3.83C-3.962 0-4.07-.108-4.07-.24-4.07-.373-3.962-.48-3.83-.48H0C.133-.48 .24-.373 .24-.24 .24-.108 .133 0 0 0" fill="#5d7982"/>
<path transform="matrix(2.7777777,0,0,-2.7777777,61.60472,49.609445)" d="M0 0H-.913C-1.07 0-1.197 .127-1.197 .284-1.197 .441-1.07 .568-.913 .568H0C.157 .568 .285 .441 .285 .284 .285 .127 .157 0 0 0" fill="#5d7982"/>
<path transform="matrix(2.7777777,0,0,-2.7777777,52.47389,61.87611)" d="M0 0H-8.005C-8.155 0-8.277-.122-8.277-.272-8.277-.422-8.155-.544-8.005-.544H0C.15-.544 .271-.422 .271-.272 .271-.122 .15 0 0 0" fill="#5d7982"/>
<path transform="matrix(2.7777777,0,0,-2.7777777,40.600557,58.72666)" d="M0 0H-3.437C-3.587 0-3.709-.122-3.709-.272-3.709-.422-3.587-.544-3.437-.544H0C.15-.544 .272-.422 .272-.272 .272-.122 .15 0 0 0" fill="#5d7982"/>
<path transform="matrix(2.7777777,0,0,-2.7777777,53.740835,58.72666)" d="M0 0H-3.437C-3.587 0-3.708-.122-3.708-.272-3.708-.422-3.587-.544-3.437-.544H0C.15-.544 .272-.422 .272-.272 .272-.122 .15 0 0 0" fill="#5d7982"/>
<path transform="matrix(2.7777777,0,0,-2.7777777,28.501944,58.72666)" d="M0 0H-2.683C-2.833 0-2.955-.122-2.955-.272-2.955-.422-2.833-.544-2.683-.544H0C.15-.544 .271-.422 .271-.272 .271-.122 .15 0 0 0" fill="#5d7982"/>
<path transform="matrix(2.7777777,0,0,-2.7777777,27.712777,61.87611)" d="M0 0H-4.517C-4.667 0-4.789-.122-4.789-.272-4.789-.422-4.667-.544-4.517-.544H0C.15-.544 .272-.422 .272-.272 .272-.122 .15 0 0 0" fill="#5d7982"/>
<path transform="matrix(2.7777777,0,0,-2.7777777,39.28639,42.179445)" d="M0 0H-2.596C-2.746 0-2.867-.122-2.867-.271-2.867-.422-2.746-.543-2.596-.543H0C.15-.543 .271-.422 .271-.271 .271-.122 .15 0 0 0" fill="#5d7982"/>
<path transform="matrix(2.7777777,0,0,-2.7777777,54.752496,54.92083)" d="M0 0H-2.085C-2.376 0-2.612-.235-2.612-.527-2.612-.818-2.376-1.055-2.085-1.055H0C.291-1.055 .527-.818 .527-.527 .527-.235 .291 0 0 0" fill="#5d7982"/>
<path transform="matrix(2.7777777,0,0,-2.7777777,23.27472,57.907495)" d="M0 0V0C-.229 0-.414 .186-.414 .414V.489C-.414 .718-.229 .903 0 .903 .229 .903 .414 .718 .414 .489V.414C.414 .186 .229 0 0 0" fill="#5d7982"/>
<path transform="matrix(2.7777777,0,0,-2.7777777,27.56472,57.769166)" d="M0 0V0C-.229 0-.414 .185-.414 .413V.489C-.414 .718-.229 .903 0 .903 .229 .903 .414 .718 .414 .489V.413C.414 .185 .229 0 0 0" fill="#5d7982"/>
<path transform="matrix(2.7777777,0,0,-2.7777777,26.919165,64.69444)" d="M0 0H-3.753C-4.061 0-4.311-.25-4.311-.558-4.311-.866-4.061-1.115-3.753-1.115H0C.308-1.115 .558-.866 .558-.558 .558-.25 .308 0 0 0" fill="#5d7982"/>
<path transform="matrix(2.7777777,0,0,-2.7777777,43.94389,19.649167)" d="M0 0H-.48C-.729 0-.932 .202-.932 .452-.932 .701-.729 .903-.48 .903H0C.25 .903 .452 .701 .452 .452 .452 .202 .25 0 0 0" fill="#5d7982"/>
<path transform="matrix(2.7777777,0,0,-2.7777777,53.35833,35.531946)" d="M0 0C0-.246-.198-.444-.443-.444-.689-.444-.888-.246-.888 0-.888 .245-.689 .444-.443 .444-.198 .444 0 .245 0 0" fill="#5d7982"/>
<path transform="matrix(2.7777777,0,0,-2.7777777,53.35833,38.094167)" d="M0 0C0 .264-.214 .478-.478 .478-.742 .478-.956 .264-.956 0-.956-.264-.742-.478-.478-.478-.214-.478 0-.264 0 0" fill="#5d7982"/>
<path transform="matrix(2.7777777,0,0,-2.7777777,58.775556,30.314164)" d="M0 0C0-.223-.182-.404-.405-.404-.629-.404-.81-.223-.81 0-.81 .224-.629 .405-.405 .405-.182 .405 0 .224 0 0" fill="#5d7982"/>
<path transform="matrix(2.7777777,0,0,-2.7777777,58.279165,27.662499)" d="M0 0C0-.455-.107-.823-.239-.823-.372-.823-.479-.455-.479 0-.479 .455-.372 .823-.239 .823-.107 .823 0 .455 0 0" fill="#5d7982"/>
<path transform="matrix(2.7777777,0,0,-2.7777777,59.56222,27.087496)" d="M0 0C0-.168-.301-.305-.673-.305-1.044-.305-1.345-.168-1.345 0-1.345 .168-1.044 .305-.673 .305-.301 .305 0 .168 0 0" fill="#5d7982"/>
<path transform="matrix(2.7777777,0,0,-2.7777777,44.3575,9.555276)" d="M0 0C0-.223-.181-.404-.405-.404-.628-.404-.81-.223-.81 0-.81 .224-.628 .405-.405 .405-.181 .405 0 .224 0 0" fill="#5d7982"/>
<path transform="matrix(2.7777777,0,0,-2.7777777,43.8625,6.9038865)" d="M0 0C0-.455-.107-.823-.24-.823-.372-.823-.479-.455-.479 0-.479 .455-.372 .823-.24 .823-.107 .823 0 .455 0 0" fill="#5d7982"/>
<path transform="matrix(2.7777777,0,0,-2.7777777,45.146944,6.328609)" d="M0 0C0-.168-.302-.305-.673-.305-1.044-.305-1.346-.168-1.346 0-1.346 .168-1.044 .305-.673 .305-.302 .305 0 .168 0 0" fill="#5d7982"/>
<path transform="matrix(2.7777777,0,0,-2.7777777,37.17583,28.994442)" d="M0 0C0-.224-.181-.405-.405-.405-.628-.405-.809-.224-.809 0-.809 .223-.628 .405-.405 .405-.181 .405 0 .223 0 0" fill="#5d7982"/>
<path transform="matrix(2.7777777,0,0,-2.7777777,36.680833,26.342778)" d="M0 0C0-.455-.107-.823-.24-.823-.372-.823-.479-.455-.479 0-.479 .455-.372 .823-.24 .823-.107 .823 0 .455 0 0" fill="#5d7982"/>
<path transform="matrix(2.7777777,0,0,-2.7777777,37.963888,25.769164)" d="M0 0C0-.168-.301-.305-.673-.305-1.044-.305-1.345-.168-1.345 0-1.345 .168-1.044 .305-.673 .305-.301 .305 0 .168 0 0" fill="#5d7982"/>
<path transform="matrix(2.7777777,0,0,-2.7777777,26.295277,32.59944)" d="M0 0C0-.224-.181-.405-.404-.405-.628-.405-.809-.224-.809 0-.809 .223-.628 .404-.404 .404-.181 .404 0 .223 0 0" fill="#5d7982"/>
<path transform="matrix(2.7777777,0,0,-2.7777777,25.800278,29.949166)" d="M0 0C0-.455-.107-.823-.24-.823-.372-.823-.479-.455-.479 0-.479 .455-.372 .823-.24 .823-.107 .823 0 .455 0 0" fill="#5d7982"/>
<path transform="matrix(2.7777777,0,0,-2.7777777,27.083333,29.374165)" d="M0 0C0-.168-.301-.305-.672-.305-1.044-.305-1.345-.168-1.345 0-1.345 .168-1.044 .305-.672 .305-.301 .305 0 .168 0 0" fill="#5d7982"/>
<path transform="matrix(2.7777777,0,0,-2.7777777,54.73083,63.129446)" d="M0 0C.426 .81 .852 1.619 1.277 2.428 1.687 1.619 2.097 .81 2.507 0 2.356-.05 2.127-.101 1.922 0 1.393 .259 1.458 1.308 1.277 1.312 1.095 1.318 1.094 .239 .525 0 .329-.083 .125-.039 0 0" fill="#5d7982"/>
<path transform="matrix(2.7777777,0,0,-2.7777777,15.856943,59.95555)" d="M0 0C.341 1.365 .683 2.729 1.024 4.095H1.368C1.582 3.353 1.796 2.609 2.01 1.866 1.853 1.657 1.697 1.447 1.541 1.238 1.426 1.674 1.311 2.11 1.196 2.546L.607 0Z" fill="#5d7982"/>
<path transform="matrix(2.7777777,0,0,-2.7777777,20.589165,47.328058)" d="M0 0C0-.269-.205-.487-.458-.487-.71-.487-.916-.269-.916 0-.916 .27-.71 .487-.458 .487-.205 .487 0 .27 0 0" fill="#5d7982"/>
<path transform="matrix(2.7777777,0,0,-2.7777777,30.86222,57.769166)" d="M0 0C.055 .748 .11 1.497 .166 2.245H1.506C1.6 1.497 1.694 .748 1.787 0H1.211C1.162 .508 1.048 1.524 .894 1.525 .738 1.526 .611 .507 .556 0Z" fill="#5d7982"/>
<path transform="matrix(2.7777777,0,0,-2.7777777,36.16944,57.769166)" d="M0 0C.055 .748 .11 1.497 .166 2.245H1.507C1.601 1.497 1.694 .748 1.788 0H1.212C1.163 .508 1.049 1.524 .894 1.525 .739 1.526 .611 .507 .556 0Z" fill="#5d7982"/>
<path transform="matrix(2.7777777,0,0,-2.7777777,29.916666,64.69444)" d="M0 0H7.609V-1.115H7.041C6.899-.739 6.536-.491 6.136-.497 5.747-.502 5.396-.748 5.257-1.115H0Z" fill="#5d7982"/>
<path transform="matrix(2.7777777,0,0,-2.7777777,55.072778,67.792499)" d="M0 0H-1.016V1.187C.352 1.173 1.72 1.158 3.087 1.144V0H2.118C1.793 .446 1.263 .666 .774 .558 .309 .454 .059 .091 0 0" fill="#5d7982"/>
<path transform="matrix(2.7777777,0,0,-2.7777777,57.649724,35.531946)" d="M0 0C-.244-.297-.439-.532-.571-.707-.626-.779-.731-.923-.919-.987-.957-1-.988-1.006-1.011-1.01-1.036-1.017-1.088-1.027-1.147-1.01-1.264-.976-1.311-.864-1.318-.844-1.37-.718-1.315-.597-1.295-.559-1.274-.521-1.247-.489-1.21-.444-1.162-.388-1.121-.351-1.113-.343-1.022-.258-.712 .079-.577 .261-.509 .354-.467 .431-.179 1.321-.104 1.549-.044 1.74 0 1.878 .045 1.675 .116 1.394 .227 1.065 .345 .713 .404 .537 .506 .358 .731-.041 1.059-.33 1.423-.65 1.619-.823 1.778-.945 1.885-1.186 1.982-1.408 1.982-1.61 1.981-1.665 1.98-1.714 1.975-1.879 1.896-2.075 1.864-2.155 1.8-2.312 1.651-2.457 1.53-2.575 1.413-2.626 1.252-2.696 1.168-2.732 .958-2.818 .647-2.873 .399-2.917 .199-2.912-.201-2.902-.223-2.901-.533-2.891-.686-2.771-.749-2.721-.788-2.656-.788-2.656-.805-2.629-.838-2.574-.845-2.497-.848-2.467-.855-2.389-.816-2.326-.788-2.28-.733-2.238-.577-2.212-.468-2.194-.287-2.179-.053-2.235 .209-2.228 .472-2.22 .734-2.213 .784-2.219 .871-2.222 .968-2.184 1.107-2.128 1.178-2.022 1.206-1.979 1.222-1.955 1.271-1.875 1.291-1.756 1.331-1.513 1.209-1.319 1.179-1.274 1.135-1.209 1.067-1.152 .933-1.038 .783-.911 .75-.9 .647-.816 .419-.626 .278-.427 .187-.297 .105-.182 .044-.079 0 0" fill="#5d7982"/>
<path transform="matrix(2.7777777,0,0,-2.7777777,43.48833,22.292778)" d="M0 0-.768-3.148H-1.83C-1.46-1.873-1.091-.597-.723 .679H.616C.976-.597 1.337-1.873 1.698-3.148H.765C.51-2.099 .255-1.049 0 0" fill="#5d7982"/>
<path transform="matrix(2.7777777,0,0,-2.7777777,35.023336,34.71)" d="M0 0C-.12-.353-.195-.654-.243-.881-.255-.936-.313-1.219-.329-1.584-.334-1.707-.334-1.84-.287-1.999-.25-2.119-.213-2.236-.099-2.324-.071-2.345 .062-2.441 .237-2.413 .26-2.409 .349-2.393 .434-2.324 .484-2.283 .538-2.22 .597-2.051 .673-1.831 .683-1.647 .684-1.631 .698-1.303 .644-1.035 .597-.789 .561-.605 .504-.306 .434 .085 .651-.155 .837-.341 .966-.467 1.262-.754 1.403-.862 1.532-1.111 1.607-1.257 1.688-1.42 1.657-1.618 1.618-1.857 1.473-2.032 1.473-2.032 1.409-2.107 1.343-2.157 1.321-2.262 1.315-2.29 1.297-2.379 1.348-2.453 1.408-2.538 1.524-2.542 1.571-2.544 1.625-2.546 1.734-2.54 1.88-2.439 2.112-2.28 2.21-2.043 2.255-1.933 2.306-1.807 2.444-1.462 2.34-1.079 2.281-.861 2.174-.739 1.834-.381 1.087 .406 1.037 .421 .914 .591 .73 .847 .529 1.25 .486 1.887H.27C.264 1.762 .243 1.576 .164 1.367 .069 1.113-.065 .947-.171 .822-.632 .271-.863-.003-1.249-.329-1.515-.553-1.698-.672-1.801-.94-1.884-1.153-1.881-1.371-1.88-1.42-1.875-1.642-1.815-1.808-1.788-1.874-1.725-2.03-1.646-2.128-1.486-2.324-1.373-2.463-1.326-2.496-1.275-2.518-1.243-2.533-1.05-2.612-.919-2.499-.862-2.449-.813-2.361-.829-2.275-.847-2.168-.943-2.165-1.059-2.025-1.075-2.005-1.215-1.832-1.223-1.598-1.225-1.539-1.219-1.448-1.164-1.306-1.042-.995-.815-.772-.658-.645Z" fill="#5d7982"/>
<path transform="matrix(2.7777777,0,0,-2.7777777,28.200833,39.936109)" d="M0 0C-.159 .012-.31-.223-.368-.399-.429-.585-.393-.75-.321-1.079-.249-1.409-.168-1.514-.109-1.573-.094-1.589 .001-1.682 .149-1.722 .201-1.736 .261-1.752 .313-1.722 .371-1.689 .39-1.62 .399-1.573 .441-1.373 .415-1.175 .399-1.066 .323-.528 .329-.734 .29-.442 .275-.33 .264-.225 .185-.125 .157-.091 .09-.007 0 0" fill="#5d7982"/>
<path transform="matrix(2.7777777,0,0,-2.7777777,25.215554,37.1975)" d="M0 0C.061-.011 .099-.17 .089-.305 .068-.579-.143-.664-.42-1.033-.564-1.224-.722-1.434-.788-1.745-.861-2.093-.774-2.351-.725-2.489-.681-2.615-.621-2.777-.506-2.794-.393-2.811-.29-2.679-.269-2.653-.125-2.471-.177-2.283-.146-2.065-.115-1.853 .026-1.67 .308-1.307 .701-.8 .915-.731 .934-.446 .943-.306 .896-.193 .801 .031 .657 .372 .566 .328 .389 .697 .287 .908 .246 1.07 .097 1.119 .083 1.124 .007 1.147-.076 1.119-.233 1.065-.296 .862-.318 .796-.379 .616-.565 .392-.937-.055-1.311-.505-1.417-.417-1.797-.892-2.118-1.292-2.161-1.502-2.173-1.581-2.234-1.962-2.071-2.256-2.024-2.337-1.959-2.45-1.81-2.708-1.578-2.725-1.494-2.731-1.366-2.706-1.32-2.622-1.29-2.567-1.307-2.508-1.328-2.426-1.363-2.289-1.382-2.147-1.422-2.011-1.507-1.718-1.214-1.348-1.038-1.127-.68-.675-.474-.746-.224-.313-.136-.16-.067 .012 0 0" fill="#5d7982"/>
<path transform="matrix(2.7777777,0,0,-2.7777777,48.969167,44.02139)" d="M0 0C-.388-.378-.424-.423-.468-.491-.533-.595-.674-.823-.689-1.145-.695-1.27-.714-1.66-.423-1.961-.198-2.194 .085-2.24 .189-2.252H2.074C2.166-2.246 2.479-2.213 2.709-1.961 2.87-1.785 2.909-1.592 2.94-1.443 2.96-1.344 3.025-1.001 2.872-.643 2.801-.476 2.636-.314 2.31 0 1.895 .4 1.786 .436 1.636 .688 1.515 .892 1.453 .994 1.409 1.144 1.35 1.341 1.358 1.471 1.254 1.535 1.176 1.583 1.058 1.58 .979 1.526 .854 1.441 .904 1.278 .827 1.028 .771 .848 .684 .737 .508 .515 .413 .395 .375 .366 0 0" fill="#5d7982"/>
<path transform="matrix(2.7777777,0,0,-2.7777777,50.10583,45.016946)" d="M0 0C-.235-.23-.258-.258-.284-.299-.323-.362-.409-.501-.419-.696-.422-.771-.434-1.01-.257-1.192-.12-1.334 .052-1.362 .115-1.369H1.261C1.316-1.365 1.507-1.346 1.646-1.192 1.744-1.086 1.769-.968 1.787-.877 1.8-.817 1.839-.608 1.746-.391 1.702-.289 1.603-.191 1.404 0 1.152 .243 1.086 .264 .994 .418 .921 .542 .884 .604 .856 .694 .82 .814 .825 .894 .763 .933 .715 .962 .643 .959 .596 .927 .52 .875 .55 .776 .503 .625 .47 .515 .416 .447 .309 .312 .251 .239 .229 .222 0 0" fill="#ffffff"/>
<path transform="matrix(2.7777777,0,0,-2.7777777,42.87639,10.25389)" d="M0 0C-.06-.061-.058-.13-.077-.204-.119-.366-.23-.442-.359-.568-.505-.712-.832-1.032-.873-1.424-.88-1.501-.895-1.659-.806-1.816-.674-2.053-.411-2.114-.354-2.125H.757C.812-2.109 .932-2.064 1.032-1.949 1.145-1.821 1.167-1.682 1.176-1.618 1.207-1.405 1.132-1.236 1.094-1.154 1.036-1.031 .909-.896 .657-.629 .437-.396 .395-.371 .355-.265 .292-.101 .323 .023 .237 .066 .166 .103 .059 .061 0 0" fill="#5d7982"/>
</g>
</g>
</svg>
