<svg xmlns="http://www.w3.org/2000/svg" xmlns:xlink="http://www.w3.org/1999/xlink" version="1.1" width="83.33333pt" height="83.33333pt" viewBox="0 0 83.33333 83.33333">
<defs>
<clipPath id="clip_1">
<path transform="matrix(2.7777777,0,0,-2.7777777,0,83.33333)" d="M0 30H30V0H0Z"/>
</clipPath>
</defs>
<g id="layer_1" data-name="Layer 1">
<g clip-path="url(#clip_1)">
<path transform="matrix(2.7777777,0,0,-2.7777777,73.02778,41.743886)" d="M0 0H-2.844C-3.033 0-3.188-.154-3.188-.344-3.188-.534-3.033-.688-2.844-.688H0C.189-.688 .344-.534 .344-.344 .344-.154 .189 0 0 0" fill="#5d7982"/>
<path transform="matrix(2.7777777,0,0,-2.7777777,17.899445,41.743886)" d="M0 0H-2.843C-3.033 0-3.188-.154-3.188-.344-3.188-.534-3.033-.688-2.843-.688H0C.19-.688 .344-.534 .344-.344 .344-.154 .19 0 0 0" fill="#5d7982"/>
<path transform="matrix(2.7777777,0,0,-2.7777777,22.256112,56.08444)" d="M0 0V0C-.272 0-.492 .221-.492 .492V3.171C-.492 3.443-.272 3.664 0 3.664 .272 3.664 .493 3.443 .493 3.171V.492C.493 .221 .272 0 0 0" fill="#5d7982"/>
<path transform="matrix(2.7777777,0,0,-2.7777777,28.900832,56.08444)" d="M0 0V0C-.272 0-.493 .221-.493 .492V3.171C-.493 3.443-.272 3.664 0 3.664 .272 3.664 .492 3.443 .492 3.171V.492C.492 .221 .272 0 0 0" fill="#5d7982"/>
<path transform="matrix(2.7777777,0,0,-2.7777777,34.99472,56.08444)" d="M0 0V0C-.272 0-.493 .221-.493 .492V3.171C-.493 3.443-.272 3.664 0 3.664 .272 3.664 .493 3.443 .493 3.171V.492C.493 .221 .272 0 0 0" fill="#5d7982"/>
<path transform="matrix(2.7777777,0,0,-2.7777777,41.503889,56.08444)" d="M0 0V0C-.272 0-.493 .221-.493 .492V3.171C-.493 3.443-.272 3.664 0 3.664 .272 3.664 .492 3.443 .492 3.171V.492C.492 .221 .272 0 0 0" fill="#5d7982"/>
<path transform="matrix(2.7777777,0,0,-2.7777777,48.011667,56.08444)" d="M0 0V0C-.271 0-.492 .221-.492 .492V3.171C-.492 3.443-.271 3.664 0 3.664 .272 3.664 .492 3.443 .492 3.171V.492C.492 .221 .272 0 0 0" fill="#5d7982"/>
<path transform="matrix(2.7777777,0,0,-2.7777777,54.272497,56.08444)" d="M0 0V0C-.272 0-.492 .221-.492 .492V3.171C-.492 3.443-.272 3.664 0 3.664 .271 3.664 .492 3.443 .492 3.171V.492C.492 .221 .271 0 0 0" fill="#5d7982"/>
<path transform="matrix(2.7777777,0,0,-2.7777777,60.690557,56.08444)" d="M0 0V0C-.272 0-.493 .221-.493 .492V3.171C-.493 3.443-.272 3.664 0 3.664 .271 3.664 .492 3.443 .492 3.171V.492C.492 .221 .271 0 0 0" fill="#5d7982"/>
<path transform="matrix(2.7777777,0,0,-2.7777777,61.938608,45.106389)" d="M0 0H-1.123C-1.268 0-1.385 .117-1.385 .261-1.385 .406-1.268 .522-1.123 .522H0C.145 .522 .261 .406 .261 .261 .261 .117 .145 0 0 0" fill="#5d7982"/>
<path transform="matrix(2.7777777,0,0,-2.7777777,55.68028,45.106389)" d="M0 0H-1.123C-1.268 0-1.385 .117-1.385 .261-1.385 .406-1.268 .522-1.123 .522H0C.144 .522 .261 .406 .261 .261 .261 .117 .144 0 0 0" fill="#5d7982"/>
<path transform="matrix(2.7777777,0,0,-2.7777777,49.571386,45.106389)" d="M0 0H-1.123C-1.268 0-1.385 .117-1.385 .261-1.385 .406-1.268 .522-1.123 .522H0C.145 .522 .262 .406 .262 .261 .262 .117 .145 0 0 0" fill="#5d7982"/>
<path transform="matrix(2.7777777,0,0,-2.7777777,42.88861,45.106389)" d="M0 0H-1.123C-1.267 0-1.384 .117-1.384 .261-1.384 .406-1.267 .522-1.123 .522H0C.145 .522 .262 .406 .262 .261 .262 .117 .145 0 0 0" fill="#5d7982"/>
<path transform="matrix(2.7777777,0,0,-2.7777777,36.737779,45.106389)" d="M0 0H-1.123C-1.267 0-1.384 .117-1.384 .261-1.384 .406-1.267 .522-1.123 .522H0C.145 .522 .262 .406 .262 .261 .262 .117 .145 0 0 0" fill="#5d7982"/>
<path transform="matrix(2.7777777,0,0,-2.7777777,30.311388,45.106389)" d="M0 0H-1.123C-1.268 0-1.384 .117-1.384 .261-1.384 .406-1.268 .522-1.123 .522H0C.144 .522 .261 .406 .261 .261 .261 .117 .144 0 0 0" fill="#5d7982"/>
<path transform="matrix(2.7777777,0,0,-2.7777777,23.815833,45.106389)" d="M0 0H-1.123C-1.267 0-1.384 .117-1.384 .261-1.384 .406-1.267 .522-1.123 .522H0C.145 .522 .261 .406 .261 .261 .261 .117 .145 0 0 0" fill="#5d7982"/>
<path transform="matrix(2.7777777,0,0,-2.7777777,70.76833,57.630834)" d="M0 0H-1.456C-1.963 0-2.374 .411-2.374 .918V3.734C-2.374 4.241-1.963 4.652-1.456 4.652H0C.507 4.652 .918 4.241 .918 3.734V.918C.918 .411 .507 0 0 0" fill="#5d7982"/>
<path transform="matrix(2.7777777,0,0,-2.7777777,16.174445,57.457223)" d="M0 0H-1.456C-1.963 0-2.374 .411-2.374 .918V3.734C-2.374 4.241-1.963 4.652-1.456 4.652H0C.507 4.652 .918 4.241 .918 3.734V.918C.918 .411 .507 0 0 0" fill="#5d7982"/>
<path transform="matrix(2.7777777,0,0,-2.7777777,14.198055,52.891668)" d="M0 0V0C-.369 0-.667 .299-.667 .668V1.288C-.667 1.656-.369 1.955 0 1.955 .368 1.955 .667 1.656 .667 1.288V.668C.667 .299 .368 0 0 0" fill="#ffffff"/>
<path transform="matrix(2.7777777,0,0,-2.7777777,68.96972,52.937776)" d="M0 0V0C-.369 0-.667 .299-.667 .667V1.288C-.667 1.656-.369 1.955 0 1.955 .368 1.955 .667 1.656 .667 1.288V.667C.667 .299 .368 0 0 0" fill="#5d7982"/>
<path transform="matrix(2.7777777,0,0,-2.7777777,75.29305,57.996938)" d="M0 0H-24.211C-24.369 0-24.497-.128-24.497-.285-24.497-.442-24.369-.57-24.211-.57H0C.157-.57 .285-.442 .285-.285 .285-.128 .157 0 0 0" fill="#5d7982"/>
<path transform="matrix(2.7777777,0,0,-2.7777777,68.96972,53.539995)" d="M0 0V0C-.369 0-.667 .299-.667 .667V1.287C-.667 1.656-.369 1.955 0 1.955 .368 1.955 .667 1.656 .667 1.287V.667C.667 .299 .368 0 0 0" fill="#ffffff"/>
<path transform="matrix(2.7777777,0,0,-2.7777777,62.809164,57.457223)" d="M0 0H-15.414C-15.502 0-15.574 .071-15.574 .16-15.574 .249-15.502 .32-15.414 .32H0C.088 .32 .16 .249 .16 .16 .16 .071 .088 0 0 0" fill="#5d7982"/>
<path transform="matrix(2.7777777,0,0,-2.7777777,0,83.33333)" d="M13.386 16.681H7.5199997V18.805H13.386Z" fill="#5d7982"/>
<path transform="matrix(2.7777777,0,0,-2.7777777,0,83.33333)" d="M22.208 18.805H16.617V16.681H22.208Z" fill="#5d7982"/>
<path transform="matrix(2.7777777,0,0,-2.7777777,0,83.33333)" d="M16.872 18.079H13.15V18.805H16.872Z" fill="#5d7982"/>
<path transform="matrix(2.7777777,0,0,-2.7777777,0,83.33333)" d="M14.878 18.151H13.8220009V17.389H14.878Z" fill="#5d7982"/>
<path transform="matrix(2.7777777,0,0,-2.7777777,0,83.33333)" d="M16.2 18.151H15.292001V17.389H16.2Z" fill="#5d7982"/>
<path transform="matrix(2.7777777,0,0,-2.7777777,23.21111,35.686666)" d="M0 0V0C-.134 0-.243 .109-.243 .243V.92C-.243 1.054-.134 1.162 0 1.162 .134 1.162 .242 1.054 .242 .92V.243C.242 .109 .134 0 0 0" fill="#ffffff"/>
<path transform="matrix(2.7777777,0,0,-2.7777777,35.38,35.686666)" d="M0 0V0C-.134 0-.242 .109-.242 .243V.92C-.242 1.054-.134 1.162 0 1.162 .134 1.162 .242 1.054 .242 .92V.243C.242 .109 .134 0 0 0" fill="#ffffff"/>
<path transform="matrix(2.7777777,0,0,-2.7777777,25.238612,35.686666)" d="M0 0V0C-.134 0-.242 .109-.242 .243V.92C-.242 1.054-.134 1.162 0 1.162 .134 1.162 .242 1.054 .242 .92V.243C.242 .109 .134 0 0 0" fill="#ffffff"/>
<path transform="matrix(2.7777777,0,0,-2.7777777,27.266388,35.769445)" d="M0 0V0C-.134 0-.242 .108-.242 .242V.919C-.242 1.053-.134 1.162 0 1.162 .134 1.162 .243 1.053 .243 .919V.242C.243 .108 .134 0 0 0" fill="#ffffff"/>
<path transform="matrix(2.7777777,0,0,-2.7777777,29.295556,35.769445)" d="M0 0V0C-.134 0-.242 .108-.242 .242V.919C-.242 1.053-.134 1.162 0 1.162 .134 1.162 .242 1.053 .242 .919V.242C.242 .108 .134 0 0 0" fill="#ffffff"/>
<path transform="matrix(2.7777777,0,0,-2.7777777,31.323332,35.769445)" d="M0 0V0C-.134 0-.242 .108-.242 .242V.919C-.242 1.053-.134 1.162 0 1.162 .134 1.162 .242 1.053 .242 .919V.242C.242 .108 .134 0 0 0" fill="#ffffff"/>
<path transform="matrix(2.7777777,0,0,-2.7777777,33.35222,35.769445)" d="M0 0V0C-.134 0-.242 .108-.242 .242V.919C-.242 1.053-.134 1.162 0 1.162 .134 1.162 .242 1.053 .242 .919V.242C.242 .108 .134 0 0 0" fill="#ffffff"/>
<path transform="matrix(2.7777777,0,0,-2.7777777,48.033334,35.72722)" d="M0 0V0C-.134 0-.242 .108-.242 .242V.919C-.242 1.053-.134 1.162 0 1.162 .134 1.162 .242 1.053 .242 .919V.242C.242 .108 .134 0 0 0" fill="#ffffff"/>
<path transform="matrix(2.7777777,0,0,-2.7777777,60.204999,35.72722)" d="M0 0V0C-.134 0-.242 .108-.242 .242V.919C-.242 1.053-.134 1.162 0 1.162 .134 1.162 .242 1.053 .242 .919V.242C.242 .108 .134 0 0 0" fill="#ffffff"/>
<path transform="matrix(2.7777777,0,0,-2.7777777,50.062498,35.72722)" d="M0 0V0C-.134 0-.242 .108-.242 .242V.919C-.242 1.053-.134 1.162 0 1.162 .134 1.162 .242 1.053 .242 .919V.242C.242 .108 .134 0 0 0" fill="#ffffff"/>
<path transform="matrix(2.7777777,0,0,-2.7777777,52.091386,35.809999)" d="M0 0V0C-.134 0-.242 .108-.242 .242V.919C-.242 1.053-.134 1.162 0 1.162 .134 1.162 .242 1.053 .242 .919V.242C.242 .108 .134 0 0 0" fill="#ffffff"/>
<path transform="matrix(2.7777777,0,0,-2.7777777,54.120557,35.809999)" d="M0 0V0C-.134 0-.243 .108-.243 .242V.919C-.243 1.053-.134 1.162 0 1.162 .134 1.162 .242 1.053 .242 .919V.242C.242 .108 .134 0 0 0" fill="#ffffff"/>
<path transform="matrix(2.7777777,0,0,-2.7777777,56.146944,35.809999)" d="M0 0V0C-.134 0-.242 .108-.242 .242V.919C-.242 1.053-.134 1.162 0 1.162 .134 1.162 .242 1.053 .242 .919V.242C.242 .108 .134 0 0 0" fill="#ffffff"/>
<path transform="matrix(2.7777777,0,0,-2.7777777,58.176107,35.809999)" d="M0 0V0C-.134 0-.242 .108-.242 .242V.919C-.242 1.053-.134 1.162 0 1.162 .134 1.162 .242 1.053 .242 .919V.242C.242 .108 .134 0 0 0" fill="#ffffff"/>
<path transform="matrix(2.7777777,0,0,-2.7777777,17.252499,40.735)" d="M0 0H-2.762V.92H4.242Z" fill="#5d7982"/>
<path transform="matrix(2.7777777,0,0,-2.7777777,65.820278,40.735)" d="M0 0H2.762V.92H-4.242Z" fill="#5d7982"/>
<path transform="matrix(2.7777777,0,0,-2.7777777,63.25416,41.24361)" d="M0 0C-2.61 .565-5.221 1.13-7.83 1.695L-15.582 0V-.524H0Z" fill="#5d7982"/>
<path transform="matrix(2.7777777,0,0,-2.7777777,63.042497,28.46)" d="M0 0C-2.61 .565-5.22 1.13-7.83 1.695-10.414 1.13-12.998 .565-15.582 0V-.524H0Z" fill="#5d7982"/>
</g>
</g>
</svg>
