<svg xmlns="http://www.w3.org/2000/svg" xmlns:xlink="http://www.w3.org/1999/xlink" version="1.1" width="27.777777pt" height="27.777777pt" viewBox="0 0 27.777777 27.777777">
<defs>
<clipPath id="clip_1">
<path transform="matrix(2.7777777,0,0,-2.7777777,0,27.777777)" d="M0 10H10V0H0Z"/>
</clipPath>
<clipPath id="clip_2">
<path transform="matrix(2.9166666,0,0,-2.9166666,13.868054,13.812499)" d="M-4.64999-4.64999H4.64999V4.64999H-4.64999Z"/>
</clipPath>
</defs>
<g id="layer_1" data-name="Layer 1">
<g clip-path="url(#clip_1)">
<g clip-path="url(#clip_2)">
<path transform="matrix(2.9166666,0,0,-2.9166666,13.868054,.9791665)" d="M0 0C2.43 0 4.4-1.97 4.4-4.4 4.4-6.83 2.43-8.8 0-8.8-2.43-8.8-4.4-6.83-4.4-4.4-4.4-1.97-2.43 0 0 0" fill="#ffffff"/>
<path transform="matrix(2.9166666,0,0,-2.9166666,13.868054,.9791665)" stroke-width=".5" stroke-linecap="butt" stroke-miterlimit="10" stroke-linejoin="miter" fill="none" stroke="#5b9a42" d="M0 0C2.43 0 4.4-1.97 4.4-4.4 4.4-6.83 2.43-8.8 0-8.8-2.43-8.8-4.4-6.83-4.4-4.4-4.4-1.97-2.43 0 0 0Z"/>
<path transform="matrix(2.9166666,0,0,-2.9166666,18.097222,19.529166)" stroke-width=".85" stroke-linecap="butt" stroke-miterlimit="10" stroke-linejoin="miter" fill="none" stroke="#5b9a42" d="M0 0-1.42 1.05-2.85 .03-2.29 1.7-3.71 2.75-1.95 2.73-1.39 4.41-.86 2.72 .9 2.71-.53 1.69 0 0Z"/>
</g>
</g>
</g>
</svg>
