<svg xmlns="http://www.w3.org/2000/svg" xmlns:xlink="http://www.w3.org/1999/xlink" version="1.1" width="27.777777pt" height="27.777777pt" viewBox="0 0 27.777777 27.777777">
<defs>
<clipPath id="clip_1">
<path transform="matrix(2.7777777,0,0,-2.7777777,0,27.777777)" d="M.1 .09H9.910001V9.900001H.1Z"/>
</clipPath>
<clipPath id="clip_2">
<path transform="matrix(2.7777777,0,0,-2.7777777,13.916665,13.916667)" d="M-4.91-4.91H4.91V4.91H-4.91Z"/>
</clipPath>
</defs>
<g id="layer_1" data-name="Layer 1">
<g clip-path="url(#clip_1)">
<g clip-path="url(#clip_2)">
<path transform="matrix(2.7777777,0,0,-2.7777777,13.938333,26.86111)" d="M0 0C-2.574-.004-4.663 2.079-4.668 4.652-4.672 7.226-2.589 9.316-.016 9.32 2.558 9.324 4.648 7.241 4.652 4.668 4.657 2.094 2.574 .004 0 0" fill="#ffffff"/>
<path transform="matrix(2.7777777,0,0,-2.7777777,13.938333,26.86111)" stroke-width=".5" stroke-linecap="butt" stroke-miterlimit="10" stroke-linejoin="miter" fill="none" stroke="#c13939" d="M0 0C-2.574-.004-4.663 2.079-4.668 4.652-4.672 7.226-2.589 9.316-.016 9.32 2.558 9.324 4.648 7.241 4.652 4.668 4.657 2.094 2.574 .004 0 0Z"/>
<path transform="matrix(2.7777777,0,0,-2.7777777,19.266388,19.584166)" d="M0 0C-1.501 .012-3.002 .024-4.503 .036-4.496 1.407-4.489 2.779-4.482 4.151-3.741 4.617-3.001 5.084-2.261 5.55-1.504 5.105-.748 4.661 .009 4.216 .006 2.769 .003 1.447 0 0" fill="#c13939"/>
<path transform="matrix(2.7777777,0,0,-2.7777777,19.266388,19.584166)" stroke-width=".85" stroke-linecap="butt" stroke-miterlimit="10" stroke-linejoin="miter" fill="none" stroke="#c13939" d="M0 0C-1.501 .012-3.002 .024-4.503 .036-4.496 1.407-4.489 2.779-4.482 4.151-3.741 4.617-3.001 5.084-2.261 5.55-1.504 5.105-.748 4.661 .009 4.216 .006 2.769 .003 1.447 0 0Z"/>
<path transform="matrix(2.7777777,0,0,-2.7777777,19.373888,20.2225)" d="M0 0C-1.314 .01-2.627 .021-3.941 .031-3.935 1.232-3.928 2.432-3.922 3.632-3.274 4.041-2.626 4.449-1.979 4.857-1.316 4.468-.654 4.079 .008 3.69 .005 2.423 .003 1.266 0 0" fill="#ffffff"/>
<path transform="matrix(2.7777777,0,0,-2.7777777,19.373888,20.2225)" stroke-width=".85" stroke-linecap="butt" stroke-miterlimit="10" stroke-linejoin="miter" fill="none" stroke="#ffffff" d="M0 0C-1.314 .01-2.627 .021-3.941 .031-3.935 1.232-3.928 2.432-3.922 3.632-3.274 4.041-2.626 4.449-1.979 4.857-1.316 4.468-.654 4.079 .008 3.69 .005 2.423 .003 1.266 0 0Z"/>
<path transform="matrix(2.7777777,0,0,-2.7777777,20.177777,21.412777)" d="M0 0C-1.314 .01-2.627 .021-3.941 .031-3.935 1.232-3.928 2.432-3.922 3.632-3.274 4.041-2.626 4.449-1.979 4.857-1.316 4.468-.654 4.079 .008 3.69 .005 2.423 .003 1.266 0 0" fill="#c13939"/>
<path transform="matrix(2.7777777,0,0,-2.7777777,20.177777,21.412777)" stroke-width=".85" stroke-linecap="butt" stroke-miterlimit="10" stroke-linejoin="miter" fill="none" stroke="#c13939" d="M0 0C-1.314 .01-2.627 .021-3.941 .031-3.935 1.232-3.928 2.432-3.922 3.632-3.274 4.041-2.626 4.449-1.979 4.857-1.316 4.468-.654 4.079 .008 3.69 .005 2.423 .003 1.266 0 0Z"/>
</g>
</g>
</g>
</svg>
