<svg xmlns="http://www.w3.org/2000/svg" xmlns:xlink="http://www.w3.org/1999/xlink" version="1.1" width="27.777777pt" height="27.777777pt" viewBox="0 0 27.777777 27.777777">
<defs>
<clipPath id="clip_1">
<path transform="matrix(2.7777777,0,0,-2.7777777,0,27.777777)" d="M0 10H10V0H0Z"/>
</clipPath>
<clipPath id="clip_2">
<path transform="matrix(2.6944445,0,0,-2.6944445,13.854444,13.8544449)" d="M-5.08-5.08H5.08V5.08H-5.08Z"/>
</clipPath>
</defs>
<g id="layer_1" data-name="Layer 1">
<g clip-path="url(#clip_1)">
<g clip-path="url(#clip_2)">
<path transform="matrix(2.6944445,0,0,-2.6944445,13.854444,.84027847)" d="M0 0C2.668 0 4.83-2.162 4.83-4.83 4.83-7.498 2.668-9.66 0-9.66-2.668-9.66-4.83-7.498-4.83-4.83-4.83-2.162-2.668 0 0 0" fill="#ffffff"/>
<path transform="matrix(2.6944445,0,0,-2.6944445,13.854444,.84027847)" stroke-width=".5" stroke-linecap="butt" stroke-miterlimit="10" stroke-linejoin="miter" fill="none" stroke="#c13939" d="M0 0C2.668 0 4.83-2.162 4.83-4.83 4.83-7.498 2.668-9.66 0-9.66-2.668-9.66-4.83-7.498-4.83-4.83-4.83-2.162-2.668 0 0 0Z"/>
<path transform="matrix(2.6944445,0,0,-2.6944445,10.250355,10.675001)" d="M0 0C.04-.55 .26-.31 .3-.55 .37-.95 .73-1.24 .95-1.33 1.08-1.39 1.21-1.42 1.35-1.42 1.49-1.42 1.62-1.39 1.75-1.33 1.97-1.23 2.32-.94 2.4-.55 2.44-.31 2.66-.55 2.7 0 2.7 .22 2.58 .27 2.58 .27 2.58 .27 2.64 .59 2.66 .84 2.69 1.15 2.48 1.95 1.36 1.95H1.35 1.34C.22 1.95 .01 1.15 .04 .84 .06 .59 .12 .27 .12 .27 .12 .27 0 .22 0 0" fill="#c13939"/>
<path transform="matrix(2.6944445,0,0,-2.6944445,18.576189,16.54889)" d="M0 0C-.24 .09-.66 .34-.74 .38-.76 .39-.78 .4-.8 .4-.85 .4-.89 .37-.91 .33-1.11 0-1.48-.79-1.74-.8-2-.78-2.37 0-2.57 .33-2.59 .37-2.63 .4-2.68 .4-2.7 .4-2.72 .4-2.74 .38-2.81 .34-3.23 .09-3.48 0-4.29-.29-4.66-.59-4.66-.8V-2.13H1.18V-.8C1.18-.6 .81-.3 0 0" fill="#c13939"/>
</g>
</g>
</g>
</svg>
