<svg xmlns="http://www.w3.org/2000/svg" xmlns:xlink="http://www.w3.org/1999/xlink" version="1.1" width="27.777777pt" height="27.777777pt" viewBox="0 0 27.777777 27.777777">
<defs>
<clipPath id="clip_1">
<path transform="matrix(2.7777777,0,0,-2.7777777,0,27.777777)" d="M0 10H10V0H0Z"/>
</clipPath>
<clipPath id="clip_2">
<path transform="matrix(2.9166666,0,0,-2.9166666,13.840278,13.840278)" d="M-4.64999-4.64999H4.64999V4.64999H-4.64999Z"/>
</clipPath>
</defs>
<g id="layer_1" data-name="Layer 1">
<g clip-path="url(#clip_1)">
<g clip-path="url(#clip_2)">
<path transform="matrix(2.9166666,0,0,-2.9166666,13.840278,1.0069449)" d="M0 0C2.43 0 4.4-1.97 4.4-4.4 4.4-6.83 2.43-8.8 0-8.8-2.43-8.8-4.4-6.83-4.4-4.4-4.4-1.97-2.43 0 0 0" fill="#ffffff"/>
<path transform="matrix(2.9166666,0,0,-2.9166666,13.840278,1.0069449)" stroke-width=".5" stroke-linecap="butt" stroke-miterlimit="10" stroke-linejoin="miter" fill="none" stroke="#c13939" d="M0 0C2.43 0 4.4-1.97 4.4-4.4 4.4-6.83 2.43-8.8 0-8.8-2.43-8.8-4.4-6.83-4.4-4.4-4.4-1.97-2.43 0 0 0Z"/>
<path transform="matrix(2.9166666,0,0,-2.9166666,13.9569439,17.602778)" d="M0 0C-.71 0-1.29 .58-1.29 1.29-1.29 2-.71 2.58 0 2.58 .71 2.58 1.29 2 1.29 1.29 1.29 .58 .71 0 0 0M2.73 .93C2.74 1.05 2.76 1.17 2.76 1.29 2.76 1.41 2.75 1.53 2.73 1.65L3.51 2.26C3.58 2.32 3.6 2.41 3.55 2.5L2.82 3.77C2.78 3.85 2.68 3.88 2.6 3.85L1.69 3.48C1.5 3.63 1.29 3.75 1.07 3.84L.93 4.81C.92 4.9 .84 4.96 .75 4.96H-.72C-.81 4.96-.89 4.89-.9 4.81L-1.04 3.84C-1.26 3.75-1.47 3.62-1.66 3.48L-2.57 3.85C-2.65 3.88-2.75 3.85-2.79 3.77L-3.52 2.5C-3.57 2.42-3.55 2.32-3.48 2.26L-2.7 1.65C-2.71 1.53-2.73 1.41-2.73 1.29-2.73 1.17-2.72 1.05-2.7 .93L-3.48 .32C-3.55 .26-3.57 .17-3.52 .08L-2.79-1.19C-2.75-1.27-2.65-1.3-2.57-1.27L-1.66-.9C-1.47-1.05-1.26-1.17-1.04-1.26L-.9-2.23C-.89-2.32-.81-2.38-.72-2.38H.75C.84-2.38 .92-2.31 .93-2.23L1.07-1.26C1.29-1.17 1.5-1.04 1.69-.9L2.6-1.27C2.68-1.3 2.78-1.27 2.82-1.19L3.55 .08C3.59 .16 3.58 .26 3.51 .32L2.73 .93Z" fill="#c13939" fill-rule="evenodd"/>
</g>
</g>
</g>
</svg>
